<svg xmlns="http://www.w3.org/2000/svg" width="1900" height="600"><rect width="1900" height="600" x="0" y="0" fill="#FFFFFF" id="backgorund"/><g transform="translate(13,16)" id="visualization"><g><rect x="0" y="0" height="12.735632183908024" width="5" fill="black"><title>Very High: 24</title></rect><rect x="1867" y="0" height="18.57279693486589" width="5" fill="black"><title>Excellent: 35</title></rect><rect x="0" y="17.735632183908024" height="19.103448275862092" width="5" fill="black"><title>High: 36</title></rect><rect x="1867" y="23.57279693486589" height="46.166666666666686" width="5" fill="black"><title>Very Good: 87</title></rect><rect x="0" y="41.839080459770116" height="71.10727969348659" width="5" fill="black"><title>Medium: 134</title></rect><rect x="1867" y="74.73946360153258" height="91.27203065134103" width="5" fill="black"><title>Good: 172</title></rect><rect x="1867" y="171.0114942528736" height="122.04980842911874" width="5" fill="black"><title>Fail: 230</title></rect><rect x="0" y="117.9463601532567" height="146.9904214559387" width="5" fill="black"><title>Low: 277</title></rect><rect x="1867" y="298.06130268199234" height="275.93869731800766" width="5" fill="black"><title>Sufficient: 520</title></rect><rect x="0" y="269.9367816091954" height="304.0632183908046" width="5" fill="black"><title>Very Low: 573</title></rect></g><g fill="none" stroke-opacity="0.7" id="flows"><g style="mix-blend-mode: multiply;"><path d="M5,502.09674329501917C936,502.09674329501917,936,502.09674329501917,1867,502.09674329501917" stroke="#2f7ec4" stroke-width="143.8065134099617"/><title>Very Low → Sufficient: 271</title></g><g style="mix-blend-mode: multiply;"><path d="M5,229.117816091954C936,229.117816091954,936,394.37452107279694,1867,394.37452107279694" stroke="#50b7e3" stroke-width="71.63793103448276"/><title>Low → Sufficient: 135</title></g><g style="mix-blend-mode: multiply;"><path d="M5,344.22796934865903C936,344.22796934865903,936,136.82567049808432,1867,136.82567049808432" stroke="#2f7ec4" stroke-width="58.37164750957855"/><title>Very Low → Good: 110</title></g><g style="mix-blend-mode: multiply;"><path d="M5,299.6532567049809C936,299.6532567049809,936,54.35057471264368,1867,54.35057471264368" stroke="#2f7ec4" stroke-width="30.77777777777778"/><title>Very Low → Very Good: 58</title></g><g style="mix-blend-mode: multiply;"><path d="M5,60.6772030651341C936,60.6772030651341,936,190.91091954022994,1867,190.91091954022994" stroke="#f5a623" stroke-width="20.695402298850578"/><title>Medium → Fail: 39</title></g><g style="mix-blend-mode: multiply;"><path d="M5,145.0095785440613C936,145.0095785440613,936,94.37356321839081,1867,94.37356321839081" stroke="#50b7e3" stroke-width="26.53256704980843"/><title>Low → Good: 50</title></g><g style="mix-blend-mode: multiply;"><path d="M5,91.98563218390805C936,91.98563218390805,936,337.5948275862069,1867,337.5948275862069" stroke="#f5a623" stroke-width="41.92145593869732"/><title>Medium → Sufficient: 79</title></g><g style="mix-blend-mode: multiply;"><path d="M5,9.021072796934867C936,9.021072796934867,936,301.7758620689655,1867,301.7758620689655" stroke="#d0021b" stroke-width="7.42911877394636"/><title>Very High → Sufficient: 14</title></g><g style="mix-blend-mode: multiply;"><path d="M5,31.267241379310324C936,31.267241379310324,936,311.06226053639847,1867,311.06226053639847" stroke="#f57023" stroke-width="11.14367816091954"/><title>High → Sufficient: 21</title></g><g style="mix-blend-mode: multiply;"><path d="M5,126.70210727969348C936,126.70210727969348,936,33.92049808429118,1867,33.92049808429118" stroke="#50b7e3" stroke-width="10.082375478927204"/><title>Low → Very Good: 19</title></g><g style="mix-blend-mode: multiply;"><path d="M5,0.5306513409961686C936,0.5306513409961686,936,24.10344827586206,1867,24.10344827586206" stroke="#d0021b" stroke-width="1.0613026819923372"/><title>Very High → Very Good: 2</title></g><g style="mix-blend-mode: multiply;"><path d="M5,401.80363984674335C936,401.80363984674335,936,264.67145593869736,1867,264.67145593869736" stroke="#2f7ec4" stroke-width="56.77969348659004"/><title>Very Low → Fail: 107</title></g><g style="mix-blend-mode: multiply;"><path d="M5,3.1839080459770117C936,3.1839080459770117,936,173.13409961685826,1867,173.13409961685826" stroke="#d0021b" stroke-width="4.245210727969349"/><title>Very High → Fail: 8</title></g><g style="mix-blend-mode: multiply;"><path d="M5,277.10057471264366C936,277.10057471264366,936,11.409003831417625,1867,11.409003831417625" stroke="#2f7ec4" stroke-width="14.327586206896553"/><title>Very Low → Excellent: 27</title></g><g style="mix-blend-mode: multiply;"><path d="M5,175.78735632183907C936,175.78735632183907,936,218.7701149425288,1867,218.7701149425288" stroke="#50b7e3" stroke-width="35.02298850574713"/><title>Low → Fail: 66</title></g><g style="mix-blend-mode: multiply;"><path d="M5,47.941570881226056C936,47.941570881226056,936,78.71934865900384,1867,78.71934865900384" stroke="#f5a623" stroke-width="4.775862068965518"/><title>Medium → Good: 9</title></g><g style="mix-blend-mode: multiply;"><path d="M5,23.042145593869712C936,23.042145593869712,936,177.9099616858238,1867,177.9099616858238" stroke="#f57023" stroke-width="5.306513409961687"/><title>High → Fail: 10</title></g><g style="mix-blend-mode: multiply;"><path d="M5,43.961685823754785C936,43.961685823754785,936,27.287356321839074,1867,27.287356321839074" stroke="#f5a623" stroke-width="3.1839080459770117"/><title>Medium → Very Good: 6</title></g><g style="mix-blend-mode: multiply;"><path d="M5,119.8036398467433C936,119.8036398467433,936,2.387931034482759,1867,2.387931034482759" stroke="#50b7e3" stroke-width="3.71455938697318"/><title>Low → Excellent: 7</title></g><g style="mix-blend-mode: multiply;"><path d="M5,18.266283524904193C936,18.266283524904193,936,25.164750957854398,1867,25.164750957854398" stroke="#f57023" stroke-width="1.0613026819923372"/><title>High → Very Good: 2</title></g><g style="mix-blend-mode: multiply;"><path d="M5,19.592911877394613C936,19.592911877394613,936,75.53544061302684,1867,75.53544061302684" stroke="#f57023" stroke-width="1.5919540229885059"/><title>High → Good: 3</title></g><g style="mix-blend-mode: multiply;"><path d="M5,42.1044061302682C936,42.1044061302682,936,0.2653256704980843,1867,0.2653256704980843" stroke="#f5a623" stroke-width="1"/><title>Medium → Excellent: 1</title></g></g><g><text x="9" y="10.367816091954012" text-anchor="start"><tspan alignment-baseline="middle" x="9" style="font-family: Arial, sans-serif; font-size: 14px; fill: black; font-weight: bold;">Very High</tspan></text><text x="1863" y="14.286398467432946" text-anchor="end"><tspan alignment-baseline="middle" x="1863" style="font-family: Arial, sans-serif; font-size: 16px; fill: black; font-weight: bold;">Excellent</tspan></text><text x="9" y="32.28735632183907" text-anchor="start"><tspan alignment-baseline="middle" x="9" style="font-family: Arial, sans-serif; font-size: 16px; fill: black; font-weight: bold;">High</tspan></text><text x="1863" y="52.656130268199234" text-anchor="end"><tspan alignment-baseline="middle" x="1863" style="font-family: Arial, sans-serif; font-size: 16px; fill: black; font-weight: bold;">Very Good</tspan></text><text x="9" y="77.39272030651341" text-anchor="start"><tspan alignment-baseline="middle" x="9" style="font-family: Arial, sans-serif; font-size: 16px; fill: black; font-weight: bold;">Medium</tspan></text><text x="1863" y="120.37547892720309" text-anchor="end"><tspan alignment-baseline="middle" x="1863" style="font-family: Arial, sans-serif; font-size: 16px; fill: black; font-weight: bold;">Good</tspan></text><text x="1863" y="232.03639846743297" text-anchor="end"><tspan alignment-baseline="middle" x="1863" style="font-family: Arial, sans-serif; font-size: 16px; fill: black; font-weight: bold;">Fail</tspan></text><text x="9" y="191.44157088122606" text-anchor="start"><tspan alignment-baseline="middle" x="9" style="font-family: Arial, sans-serif; font-size: 16px; fill: black; font-weight: bold;">Low</tspan></text><text x="1863" y="436.0306513409962" text-anchor="end"><tspan alignment-baseline="middle" x="1863" style="font-family: Arial, sans-serif; font-size: 16px; fill: black; font-weight: bold;">Sufficient</tspan></text><text x="9" y="421.9683908045977" text-anchor="start"><tspan alignment-baseline="middle" x="9" style="font-family: Arial, sans-serif; font-size: 16px; fill: black; font-weight: bold;">Very Low</tspan></text></g><g><text x="69.5" y="-4" text-anchor="middle" style="font-family: Arial, sans-serif; font-size: 14px; fill: rgb(123, 123, 123); font-weight: bold;">Alcohol consumption</text><text x="1829.5" y="-4" text-anchor="middle" style="font-family: Arial, sans-serif; font-size: 14px; fill: rgb(123, 123, 123); font-weight: bold;">Grade Range</text></g></g></svg>