<svg xmlns="http://www.w3.org/2000/svg" width="1900" height="600"><rect width="1900" height="600" x="0" y="0" fill="#FFFFFF" id="backgorund"/><g transform="translate(10,17)" id="visualization"><g><rect x="1875" y="0" height="18.53927203065132" width="5" fill="black"><title>a_Excellent: 35</title></rect><rect x="0" y="0" height="12.71264367816093" width="5" fill="black"><title>a_Very High: 24</title></rect><rect x="0" y="17.71264367816093" height="19.068965517241395" width="5" fill="black"><title>b_High: 36</title></rect><rect x="1875" y="23.53927203065132" height="46.083333333333314" width="5" fill="black"><title>b_Very Good: 87</title></rect><rect x="1875" y="74.62260536398463" height="91.10727969348659" width="5" fill="black"><title>c_Good: 172</title></rect><rect x="0" y="41.781609195402325" height="70.9789272030651" width="5" fill="black"><title>c_Medium: 134</title></rect><rect x="0" y="117.76053639846742" height="146.72509578544066" width="5" fill="black"><title>d_Low: 277</title></rect><rect x="1875" y="170.72988505747122" height="275.44061302681996" width="5" fill="black"><title>d_Sufficient: 520</title></rect><rect x="1875" y="451.1704980842912" height="121.82950191570882" width="5" fill="black"><title>e_Fail: 230</title></rect><rect x="0" y="269.4856321839081" height="303.5143678160919" width="5" fill="black"><title>e_Very Low: 573</title></rect></g><g fill="none" stroke-opacity="0.7" id="flows"><g style="mix-blend-mode: multiply;"><path d="M5,444.5493295019158C940,444.5493295019158,940,374.39703065134097,1875,374.39703065134097" stroke="#4a75e2" stroke-width="143.5469348659004"/><title>e_Very Low → d_Sufficient: 271</title></g><g style="mix-blend-mode: multiply;"><path d="M5,193.77155172413794C940,193.77155172413794,940,266.86925287356314,1875,266.86925287356314" stroke="#69a9cf" stroke-width="71.50862068965517"/><title>d_Low → d_Sufficient: 135</title></g><g style="mix-blend-mode: multiply;"><path d="M5,343.64272030651347C940,343.64272030651347,940,136.5967432950191,1875,136.5967432950191" stroke="#4a75e2" stroke-width="58.26628352490422"/><title>e_Very Low → c_Good: 110</title></g><g style="mix-blend-mode: multiply;"><path d="M5,299.1484674329502C940,299.1484674329502,940,54.26149425287354,1875,54.26149425287354" stroke="#4a75e2" stroke-width="30.722222222222225"/><title>e_Very Low → b_Very Good: 58</title></g><g style="mix-blend-mode: multiply;"><path d="M5,102.43151340996172C940,102.43151340996172,940,471.03400383141764,1875,471.03400383141764" stroke="#f5a623" stroke-width="20.658045977011497"/><title>c_Medium → e_Fail: 39</title></g><g style="mix-blend-mode: multiply;"><path d="M5,144.77490421455937C940,144.77490421455937,940,94.22126436781606,1875,94.22126436781606" stroke="#69a9cf" stroke-width="26.484674329501917"/><title>d_Low → c_Good: 50</title></g><g style="mix-blend-mode: multiply;"><path d="M5,71.17959770114945C940,71.17959770114945,940,210.1920498084291,1875,210.1920498084291" stroke="#f5a623" stroke-width="41.84578544061303"/><title>c_Medium → d_Sufficient: 79</title></g><g style="mix-blend-mode: multiply;"><path d="M5,4.767241379310345C940,4.767241379310345,940,174.4377394636015,1875,174.4377394636015" stroke="#d0021b" stroke-width="7.415708812260537"/><title>a_Very High → d_Sufficient: 14</title></g><g style="mix-blend-mode: multiply;"><path d="M5,25.922892720306525C940,25.922892720306525,940,183.70737547892716,1875,183.70737547892716" stroke="#f58623" stroke-width="11.123563218390805"/><title>b_High → d_Sufficient: 21</title></g><g style="mix-blend-mode: multiply;"><path d="M5,126.50047892720305C940,126.50047892720305,940,33.86829501915706,1875,33.86829501915706" stroke="#69a9cf" stroke-width="10.064176245210728"/><title>d_Low → b_Very Good: 19</title></g><g style="mix-blend-mode: multiply;"><path d="M5,0.5296934865900383C940,0.5296934865900383,940,24.068965517241356,1875,24.068965517241356" stroke="#d0021b" stroke-width="1.0593869731800767"/><title>a_Very High → b_Very Good: 2</title></g><g style="mix-blend-mode: multiply;"><path d="M5,544.6613984674331C940,544.6613984674331,940,544.661398467433,1875,544.661398467433" stroke="#4a75e2" stroke-width="56.6772030651341"/><title>e_Very Low → e_Fail: 107</title></g><g style="mix-blend-mode: multiply;"><path d="M5,10.593869731800767C940,10.593869731800767,940,453.2892720306513,1875,453.2892720306513" stroke="#d0021b" stroke-width="4.237547892720307"/><title>a_Very High → e_Fail: 8</title></g><g style="mix-blend-mode: multiply;"><path d="M5,276.6364942528736C940,276.6364942528736,940,11.388409961685824,1875,11.388409961685824" stroke="#4a75e2" stroke-width="14.301724137931036"/><title>e_Very Low → a_Excellent: 27</title></g><g style="mix-blend-mode: multiply;"><path d="M5,247.0057471264368C940,247.0057471264368,940,498.84291187739467,1875,498.84291187739467" stroke="#69a9cf" stroke-width="34.95977011494253"/><title>d_Low → e_Fail: 66</title></g><g style="mix-blend-mode: multiply;"><path d="M5,47.87308429118777C940,47.87308429118777,940,78.59530651340992,1875,78.59530651340992" stroke="#f5a623" stroke-width="4.767241379310345"/><title>c_Medium → c_Good: 9</title></g><g style="mix-blend-mode: multiply;"><path d="M5,34.13314176245212C940,34.13314176245212,940,458.0565134099617,1875,458.0565134099617" stroke="#f58623" stroke-width="5.296934865900384"/><title>b_High → e_Fail: 10</title></g><g style="mix-blend-mode: multiply;"><path d="M5,43.90038314176248C940,43.90038314176248,940,27.247126436781585,1875,27.247126436781585" stroke="#f5a623" stroke-width="3.17816091954023"/><title>c_Medium → b_Very Good: 6</title></g><g style="mix-blend-mode: multiply;"><path d="M5,119.61446360153256C940,119.61446360153256,940,2.3836206896551726,1875,2.3836206896551726" stroke="#69a9cf" stroke-width="3.7078544061302683"/><title>d_Low → a_Excellent: 7</title></g><g style="mix-blend-mode: multiply;"><path d="M5,18.242337164750968C940,18.242337164750968,940,25.12835249042143,1875,25.12835249042143" stroke="#f58623" stroke-width="1.0593869731800767"/><title>b_High → b_Very Good: 2</title></g><g style="mix-blend-mode: multiply;"><path d="M5,19.566570881226063C940,19.566570881226063,940,75.41714559386969,1875,75.41714559386969" stroke="#f58623" stroke-width="1.589080459770115"/><title>b_High → c_Good: 3</title></g><g style="mix-blend-mode: multiply;"><path d="M5,42.04645593869734C940,42.04645593869734,940,0.26484674329501917,1875,0.26484674329501917" stroke="#f5a623" stroke-width="1"/><title>c_Medium → a_Excellent: 1</title></g></g><g><text x="1871" y="12.26963601532566" text-anchor="end"><tspan alignment-baseline="middle" x="1871" style="font-family: Arial, sans-serif; font-size: 14px; fill: black; font-weight: bold;">Excellent</tspan></text><text x="9" y="10.356321839080465" text-anchor="start"><tspan alignment-baseline="middle" x="9" style="font-family: Arial, sans-serif; font-size: 13px; fill: black; font-weight: bold;">Very High</tspan></text><text x="9" y="32.247126436781627" text-anchor="start"><tspan alignment-baseline="middle" x="9" style="font-family: Arial, sans-serif; font-size: 16px; fill: black; font-weight: bold;">High</tspan></text><text x="1871" y="52.580938697317976" text-anchor="end"><tspan alignment-baseline="middle" x="1871" style="font-family: Arial, sans-serif; font-size: 16px; fill: black; font-weight: bold;">Very Good</tspan></text><text x="1871" y="120.17624521072793" text-anchor="end"><tspan alignment-baseline="middle" x="1871" style="font-family: Arial, sans-serif; font-size: 16px; fill: black; font-weight: bold;">Good</tspan></text><text x="9" y="77.27107279693487" text-anchor="start"><tspan alignment-baseline="middle" x="9" style="font-family: Arial, sans-serif; font-size: 16px; fill: black; font-weight: bold;">Medium</tspan></text><text x="9" y="191.12308429118775" text-anchor="start"><tspan alignment-baseline="middle" x="9" style="font-family: Arial, sans-serif; font-size: 16px; fill: black; font-weight: bold;">Low</tspan></text><text x="1871" y="322.4501915708812" text-anchor="end"><tspan alignment-baseline="middle" x="1871" style="font-family: Arial, sans-serif; font-size: 16px; fill: black; font-weight: bold;">Sufficient</tspan></text><text x="1871" y="512.0852490421456" text-anchor="end"><tspan alignment-baseline="middle" x="1871" style="font-family: Arial, sans-serif; font-size: 16px; fill: black; font-weight: bold;">Fail</tspan></text><text x="9" y="421.24281609195407" text-anchor="start"><tspan alignment-baseline="middle" x="9" style="font-family: Arial, sans-serif; font-size: 16px; fill: black; font-weight: bold;">Very Low</tspan></text></g><g><text x="1832.5" y="-4" text-anchor="middle" style="font-family: Arial, sans-serif; font-size: 14px; fill: rgb(123, 123, 123); font-weight: bold;">Grade Range</text><text x="73.5" y="-4" text-anchor="middle" style="font-family: Arial, sans-serif; font-size: 14px; fill: rgb(123, 123, 123); font-weight: bold;">Alcohol consumption</text></g></g></svg>